<mxfile host="65bd71144e">
    <diagram id="R2lEEEUBdFMjLlhIrx00" name="Page-1">
        <mxGraphModel dx="1689" dy="2351" grid="1" gridSize="10" guides="1" tooltips="1" connect="1" arrows="1" fold="1" page="1" pageScale="1" pageWidth="850" pageHeight="1100" math="0" shadow="0" extFonts="Permanent Marker^https://fonts.googleapis.com/css?family=Permanent+Marker">
            <root>
                <mxCell id="0"/>
                <mxCell id="1" parent="0"/>
                <mxCell id="L-5J91DhTl_yXd37FWec-1" value="Alumno" style="rounded=1;whiteSpace=wrap;html=1;" parent="1" vertex="1">
                    <mxGeometry x="60" y="250" width="120" height="60" as="geometry"/>
                </mxCell>
                <mxCell id="L-5J91DhTl_yXd37FWec-2" value="Profesor" style="rounded=1;whiteSpace=wrap;html=1;" parent="1" vertex="1">
                    <mxGeometry x="970" y="250" width="120" height="60" as="geometry"/>
                </mxCell>
                <mxCell id="L-5J91DhTl_yXd37FWec-3" value="Rama" style="rounded=1;whiteSpace=wrap;html=1;" parent="1" vertex="1">
                    <mxGeometry x="670" y="250" width="120" height="60" as="geometry"/>
                </mxCell>
                <mxCell id="L-5J91DhTl_yXd37FWec-4" value="Proyecto" style="rounded=1;whiteSpace=wrap;html=1;" parent="1" vertex="1">
                    <mxGeometry x="540" y="20" width="120" height="60" as="geometry"/>
                </mxCell>
                <mxCell id="L-5J91DhTl_yXd37FWec-5" value="Nota/Proyecto" style="rounded=1;whiteSpace=wrap;html=1;" parent="1" vertex="1">
                    <mxGeometry x="220" y="100" width="120" height="60" as="geometry"/>
                </mxCell>
                <mxCell id="L-5J91DhTl_yXd37FWec-8" value="Tiene" style="rhombus;whiteSpace=wrap;html=1;" parent="1" vertex="1">
                    <mxGeometry x="640" y="120" width="80" height="80" as="geometry"/>
                </mxCell>
                <mxCell id="L-5J91DhTl_yXd37FWec-11" value="Pertenece" style="rhombus;whiteSpace=wrap;html=1;" parent="1" vertex="1">
                    <mxGeometry x="840" y="240" width="80" height="80" as="geometry"/>
                </mxCell>
                <mxCell id="L-5J91DhTl_yXd37FWec-12" value="Hace" style="rhombus;whiteSpace=wrap;html=1;" parent="1" vertex="1">
                    <mxGeometry x="230" y="240" width="80" height="80" as="geometry"/>
                </mxCell>
                <mxCell id="L-5J91DhTl_yXd37FWec-15" value="Es" style="rhombus;whiteSpace=wrap;html=1;" parent="1" vertex="1">
                    <mxGeometry x="385" y="10" width="80" height="80" as="geometry"/>
                </mxCell>
                <mxCell id="L-5J91DhTl_yXd37FWec-16" value="" style="endArrow=none;html=1;rounded=0;entryX=1;entryY=0.5;entryDx=0;entryDy=0;exitX=0;exitY=0.5;exitDx=0;exitDy=0;" parent="1" source="L-5J91DhTl_yXd37FWec-4" target="L-5J91DhTl_yXd37FWec-15" edge="1">
                    <mxGeometry width="50" height="50" relative="1" as="geometry">
                        <mxPoint x="520" y="260" as="sourcePoint"/>
                        <mxPoint x="570" y="210" as="targetPoint"/>
                    </mxGeometry>
                </mxCell>
                <mxCell id="L-5J91DhTl_yXd37FWec-17" value="" style="endArrow=none;html=1;rounded=0;entryX=0;entryY=0.5;entryDx=0;entryDy=0;exitX=0.5;exitY=0;exitDx=0;exitDy=0;" parent="1" source="L-5J91DhTl_yXd37FWec-5" target="L-5J91DhTl_yXd37FWec-15" edge="1">
                    <mxGeometry width="50" height="50" relative="1" as="geometry">
                        <mxPoint x="550" y="60" as="sourcePoint"/>
                        <mxPoint x="475" y="60" as="targetPoint"/>
                        <Array as="points">
                            <mxPoint x="280" y="50"/>
                        </Array>
                    </mxGeometry>
                </mxCell>
                <mxCell id="L-5J91DhTl_yXd37FWec-20" value="" style="endArrow=none;html=1;rounded=0;entryX=0;entryY=0.5;entryDx=0;entryDy=0;exitX=1;exitY=0.5;exitDx=0;exitDy=0;" parent="1" source="L-5J91DhTl_yXd37FWec-1" target="L-5J91DhTl_yXd37FWec-12" edge="1">
                    <mxGeometry width="50" height="50" relative="1" as="geometry">
                        <mxPoint x="10" y="270" as="sourcePoint"/>
                        <mxPoint x="70" y="290" as="targetPoint"/>
                    </mxGeometry>
                </mxCell>
                <mxCell id="L-5J91DhTl_yXd37FWec-22" value="" style="endArrow=none;html=1;rounded=0;entryX=0;entryY=0.5;entryDx=0;entryDy=0;" parent="1" target="L-5J91DhTl_yXd37FWec-11" edge="1">
                    <mxGeometry width="50" height="50" relative="1" as="geometry">
                        <mxPoint x="790" y="280" as="sourcePoint"/>
                        <mxPoint x="680" y="290" as="targetPoint"/>
                    </mxGeometry>
                </mxCell>
                <mxCell id="L-5J91DhTl_yXd37FWec-23" value="" style="endArrow=none;html=1;rounded=0;entryX=0;entryY=0.5;entryDx=0;entryDy=0;exitX=1;exitY=0.5;exitDx=0;exitDy=0;" parent="1" source="L-5J91DhTl_yXd37FWec-11" target="L-5J91DhTl_yXd37FWec-2" edge="1">
                    <mxGeometry width="50" height="50" relative="1" as="geometry">
                        <mxPoint x="800" y="290" as="sourcePoint"/>
                        <mxPoint x="850" y="290" as="targetPoint"/>
                    </mxGeometry>
                </mxCell>
                <mxCell id="L-5J91DhTl_yXd37FWec-28" value="1:N" style="text;html=1;strokeColor=none;fillColor=none;align=center;verticalAlign=middle;whiteSpace=wrap;rounded=0;" parent="1" vertex="1">
                    <mxGeometry x="395" y="-30" width="60" height="30" as="geometry"/>
                </mxCell>
                <mxCell id="L-5J91DhTl_yXd37FWec-29" value="" style="endArrow=none;html=1;rounded=0;entryX=0.5;entryY=0;entryDx=0;entryDy=0;exitX=0.5;exitY=1;exitDx=0;exitDy=0;" parent="1" source="L-5J91DhTl_yXd37FWec-4" target="L-5J91DhTl_yXd37FWec-8" edge="1">
                    <mxGeometry width="50" height="50" relative="1" as="geometry">
                        <mxPoint x="580" y="530" as="sourcePoint"/>
                        <mxPoint x="520" y="530" as="targetPoint"/>
                        <Array as="points">
                            <mxPoint x="600" y="120"/>
                        </Array>
                    </mxGeometry>
                </mxCell>
                <mxCell id="L-5J91DhTl_yXd37FWec-30" value="" style="endArrow=none;html=1;rounded=0;entryX=0.5;entryY=0;entryDx=0;entryDy=0;exitX=0.41;exitY=0.998;exitDx=0;exitDy=0;exitPerimeter=0;" parent="1" source="L-5J91DhTl_yXd37FWec-8" target="L-5J91DhTl_yXd37FWec-3" edge="1">
                    <mxGeometry width="50" height="50" relative="1" as="geometry">
                        <mxPoint x="590" y="540" as="sourcePoint"/>
                        <mxPoint x="530" y="540" as="targetPoint"/>
                        <Array as="points">
                            <mxPoint x="730" y="200"/>
                        </Array>
                    </mxGeometry>
                </mxCell>
                <mxCell id="L-5J91DhTl_yXd37FWec-31" value="N" style="text;html=1;strokeColor=none;fillColor=none;align=center;verticalAlign=middle;whiteSpace=wrap;rounded=0;" parent="1" vertex="1">
                    <mxGeometry x="500" y="10" width="60" height="30" as="geometry"/>
                </mxCell>
                <mxCell id="L-5J91DhTl_yXd37FWec-33" value="1" style="text;html=1;strokeColor=none;fillColor=none;align=center;verticalAlign=middle;whiteSpace=wrap;rounded=0;" parent="1" vertex="1">
                    <mxGeometry x="280" y="70" width="60" height="30" as="geometry"/>
                </mxCell>
                <mxCell id="L-5J91DhTl_yXd37FWec-37" value="N:M" style="text;html=1;strokeColor=none;fillColor=none;align=center;verticalAlign=middle;whiteSpace=wrap;rounded=0;" parent="1" vertex="1">
                    <mxGeometry x="240" y="210" width="60" height="30" as="geometry"/>
                </mxCell>
                <mxCell id="L-5J91DhTl_yXd37FWec-38" value="N" style="text;html=1;strokeColor=none;fillColor=none;align=center;verticalAlign=middle;whiteSpace=wrap;rounded=0;" parent="1" vertex="1">
                    <mxGeometry x="160" y="250" width="60" height="30" as="geometry"/>
                </mxCell>
                <mxCell id="L-5J91DhTl_yXd37FWec-40" value="N:M" style="text;html=1;strokeColor=none;fillColor=none;align=center;verticalAlign=middle;whiteSpace=wrap;rounded=0;" parent="1" vertex="1">
                    <mxGeometry x="700" y="145" width="60" height="30" as="geometry"/>
                </mxCell>
                <mxCell id="L-5J91DhTl_yXd37FWec-41" value="N" style="text;html=1;strokeColor=none;fillColor=none;align=center;verticalAlign=middle;whiteSpace=wrap;rounded=0;" parent="1" vertex="1">
                    <mxGeometry x="580" y="80" width="60" height="30" as="geometry"/>
                </mxCell>
                <mxCell id="L-5J91DhTl_yXd37FWec-42" value="N" style="text;html=1;strokeColor=none;fillColor=none;align=center;verticalAlign=middle;whiteSpace=wrap;rounded=0;" parent="1" vertex="1">
                    <mxGeometry x="670" y="220" width="60" height="30" as="geometry"/>
                </mxCell>
                <mxCell id="L-5J91DhTl_yXd37FWec-43" value="1:N" style="text;html=1;strokeColor=none;fillColor=none;align=center;verticalAlign=middle;whiteSpace=wrap;rounded=0;" parent="1" vertex="1">
                    <mxGeometry x="850" y="210" width="60" height="30" as="geometry"/>
                </mxCell>
                <mxCell id="L-5J91DhTl_yXd37FWec-44" value="N" style="text;html=1;strokeColor=none;fillColor=none;align=center;verticalAlign=middle;whiteSpace=wrap;rounded=0;" parent="1" vertex="1">
                    <mxGeometry x="930" y="250" width="60" height="30" as="geometry"/>
                </mxCell>
                <mxCell id="L-5J91DhTl_yXd37FWec-45" value="1" style="text;html=1;strokeColor=none;fillColor=none;align=center;verticalAlign=middle;whiteSpace=wrap;rounded=0;" parent="1" vertex="1">
                    <mxGeometry x="780" y="250" width="60" height="30" as="geometry"/>
                </mxCell>
                <mxCell id="hs3t5YbcjIkOprN6Pvll-1" value="Promoción" style="rounded=1;whiteSpace=wrap;html=1;" parent="1" vertex="1">
                    <mxGeometry x="370" y="250" width="120" height="60" as="geometry"/>
                </mxCell>
                <mxCell id="hs3t5YbcjIkOprN6Pvll-3" value="" style="endArrow=none;html=1;rounded=0;entryX=0;entryY=0.5;entryDx=0;entryDy=0;exitX=1;exitY=0.5;exitDx=0;exitDy=0;" parent="1" source="L-5J91DhTl_yXd37FWec-12" target="hs3t5YbcjIkOprN6Pvll-1" edge="1">
                    <mxGeometry width="50" height="50" relative="1" as="geometry">
                        <mxPoint x="930" y="290" as="sourcePoint"/>
                        <mxPoint x="980" y="290" as="targetPoint"/>
                    </mxGeometry>
                </mxCell>
                <mxCell id="hs3t5YbcjIkOprN6Pvll-4" value="N" style="text;html=1;strokeColor=none;fillColor=none;align=center;verticalAlign=middle;whiteSpace=wrap;rounded=0;" parent="1" vertex="1">
                    <mxGeometry x="325" y="250" width="60" height="30" as="geometry"/>
                </mxCell>
                <mxCell id="hs3t5YbcjIkOprN6Pvll-5" value="Tiene" style="rhombus;whiteSpace=wrap;html=1;" parent="1" vertex="1">
                    <mxGeometry x="540" y="240" width="80" height="80" as="geometry"/>
                </mxCell>
                <mxCell id="hs3t5YbcjIkOprN6Pvll-6" value="" style="endArrow=none;html=1;rounded=0;entryX=0;entryY=0.5;entryDx=0;entryDy=0;exitX=1;exitY=0.5;exitDx=0;exitDy=0;" parent="1" target="L-5J91DhTl_yXd37FWec-3" edge="1">
                    <mxGeometry width="50" height="50" relative="1" as="geometry">
                        <mxPoint x="620" y="280" as="sourcePoint"/>
                        <mxPoint x="680" y="280" as="targetPoint"/>
                    </mxGeometry>
                </mxCell>
                <mxCell id="hs3t5YbcjIkOprN6Pvll-7" value="" style="endArrow=none;html=1;rounded=0;entryX=0;entryY=0.5;entryDx=0;entryDy=0;exitX=1;exitY=0.5;exitDx=0;exitDy=0;" parent="1" source="hs3t5YbcjIkOprN6Pvll-1" target="hs3t5YbcjIkOprN6Pvll-5" edge="1">
                    <mxGeometry width="50" height="50" relative="1" as="geometry">
                        <mxPoint x="330" y="300" as="sourcePoint"/>
                        <mxPoint x="390" y="300" as="targetPoint"/>
                    </mxGeometry>
                </mxCell>
                <mxCell id="hs3t5YbcjIkOprN6Pvll-8" value="N:M" style="text;html=1;strokeColor=none;fillColor=none;align=center;verticalAlign=middle;whiteSpace=wrap;rounded=0;" parent="1" vertex="1">
                    <mxGeometry x="550" y="210" width="60" height="30" as="geometry"/>
                </mxCell>
                <mxCell id="hs3t5YbcjIkOprN6Pvll-9" value="N" style="text;html=1;strokeColor=none;fillColor=none;align=center;verticalAlign=middle;whiteSpace=wrap;rounded=0;" parent="1" vertex="1">
                    <mxGeometry x="480" y="250" width="60" height="30" as="geometry"/>
                </mxCell>
                <mxCell id="hs3t5YbcjIkOprN6Pvll-10" value="N" style="text;html=1;strokeColor=none;fillColor=none;align=center;verticalAlign=middle;whiteSpace=wrap;rounded=0;" parent="1" vertex="1">
                    <mxGeometry x="620" y="250" width="60" height="30" as="geometry"/>
                </mxCell>
                <mxCell id="hs3t5YbcjIkOprN6Pvll-11" value="Es" style="rhombus;whiteSpace=wrap;html=1;" parent="1" vertex="1">
                    <mxGeometry x="580" y="410" width="80" height="80" as="geometry"/>
                </mxCell>
                <mxCell id="hs3t5YbcjIkOprN6Pvll-12" value="" style="endArrow=none;html=1;rounded=0;entryX=0.5;entryY=0;entryDx=0;entryDy=0;exitX=0.25;exitY=1;exitDx=0;exitDy=0;" parent="1" source="L-5J91DhTl_yXd37FWec-3" target="hs3t5YbcjIkOprN6Pvll-11" edge="1">
                    <mxGeometry width="50" height="50" relative="1" as="geometry">
                        <mxPoint x="320" y="290" as="sourcePoint"/>
                        <mxPoint x="380" y="290" as="targetPoint"/>
                    </mxGeometry>
                </mxCell>
                <mxCell id="hs3t5YbcjIkOprN6Pvll-13" value="Tasistencia" style="rounded=1;whiteSpace=wrap;html=1;" parent="1" vertex="1">
                    <mxGeometry x="560" y="560" width="120" height="60" as="geometry"/>
                </mxCell>
                <mxCell id="hs3t5YbcjIkOprN6Pvll-14" value="" style="endArrow=none;html=1;rounded=0;entryX=0.5;entryY=0;entryDx=0;entryDy=0;exitX=0.5;exitY=1;exitDx=0;exitDy=0;" parent="1" source="hs3t5YbcjIkOprN6Pvll-11" target="hs3t5YbcjIkOprN6Pvll-13" edge="1">
                    <mxGeometry width="50" height="50" relative="1" as="geometry">
                        <mxPoint x="710" y="320" as="sourcePoint"/>
                        <mxPoint x="630" y="420" as="targetPoint"/>
                    </mxGeometry>
                </mxCell>
                <mxCell id="hs3t5YbcjIkOprN6Pvll-15" value="Modalidad" style="rounded=1;whiteSpace=wrap;html=1;" parent="1" vertex="1">
                    <mxGeometry x="780" y="560" width="120" height="60" as="geometry"/>
                </mxCell>
                <mxCell id="hs3t5YbcjIkOprN6Pvll-16" value="Es" style="rhombus;whiteSpace=wrap;html=1;" parent="1" vertex="1">
                    <mxGeometry x="800" y="410" width="80" height="80" as="geometry"/>
                </mxCell>
                <mxCell id="hs3t5YbcjIkOprN6Pvll-17" value="" style="endArrow=none;html=1;rounded=0;entryX=0.5;entryY=0;entryDx=0;entryDy=0;exitX=0.75;exitY=1;exitDx=0;exitDy=0;" parent="1" source="L-5J91DhTl_yXd37FWec-3" target="hs3t5YbcjIkOprN6Pvll-16" edge="1">
                    <mxGeometry width="50" height="50" relative="1" as="geometry">
                        <mxPoint x="710" y="320" as="sourcePoint"/>
                        <mxPoint x="630" y="420" as="targetPoint"/>
                    </mxGeometry>
                </mxCell>
                <mxCell id="hs3t5YbcjIkOprN6Pvll-18" value="" style="endArrow=none;html=1;rounded=0;entryX=0.5;entryY=0;entryDx=0;entryDy=0;exitX=0.5;exitY=1;exitDx=0;exitDy=0;" parent="1" source="hs3t5YbcjIkOprN6Pvll-16" target="hs3t5YbcjIkOprN6Pvll-15" edge="1">
                    <mxGeometry width="50" height="50" relative="1" as="geometry">
                        <mxPoint x="770" y="320" as="sourcePoint"/>
                        <mxPoint x="850" y="420" as="targetPoint"/>
                    </mxGeometry>
                </mxCell>
                <mxCell id="hs3t5YbcjIkOprN6Pvll-19" value="1:N" style="text;html=1;strokeColor=none;fillColor=none;align=center;verticalAlign=middle;whiteSpace=wrap;rounded=0;" parent="1" vertex="1">
                    <mxGeometry x="530" y="430" width="60" height="30" as="geometry"/>
                </mxCell>
                <mxCell id="hs3t5YbcjIkOprN6Pvll-20" value="1:N" style="text;html=1;strokeColor=none;fillColor=none;align=center;verticalAlign=middle;whiteSpace=wrap;rounded=0;" parent="1" vertex="1">
                    <mxGeometry x="890" y="430" width="60" height="30" as="geometry"/>
                </mxCell>
                <mxCell id="hs3t5YbcjIkOprN6Pvll-21" value="N" style="text;html=1;strokeColor=none;fillColor=none;align=center;verticalAlign=middle;whiteSpace=wrap;rounded=0;" parent="1" vertex="1">
                    <mxGeometry x="570" y="530" width="60" height="30" as="geometry"/>
                </mxCell>
                <mxCell id="hs3t5YbcjIkOprN6Pvll-22" value="1" style="text;html=1;strokeColor=none;fillColor=none;align=center;verticalAlign=middle;whiteSpace=wrap;rounded=0;" parent="1" vertex="1">
                    <mxGeometry x="640" y="300" width="60" height="30" as="geometry"/>
                </mxCell>
                <mxCell id="hs3t5YbcjIkOprN6Pvll-23" value="1" style="text;html=1;strokeColor=none;fillColor=none;align=center;verticalAlign=middle;whiteSpace=wrap;rounded=0;" parent="1" vertex="1">
                    <mxGeometry x="760" y="300" width="60" height="30" as="geometry"/>
                </mxCell>
                <mxCell id="hs3t5YbcjIkOprN6Pvll-24" value="N" style="text;html=1;strokeColor=none;fillColor=none;align=center;verticalAlign=middle;whiteSpace=wrap;rounded=0;" parent="1" vertex="1">
                    <mxGeometry x="830" y="530" width="60" height="30" as="geometry"/>
                </mxCell>
                <mxCell id="hs3t5YbcjIkOprN6Pvll-25" value="id_nota(PK)&lt;br&gt;id_proyecto(FK1)&lt;br&gt;Apto/ No Apto" style="ellipse;whiteSpace=wrap;html=1;" parent="1" vertex="1">
                    <mxGeometry x="50" y="90" width="120" height="80" as="geometry"/>
                </mxCell>
                <mxCell id="hs3t5YbcjIkOprN6Pvll-26" value="" style="endArrow=none;html=1;rounded=0;exitX=1;exitY=0.5;exitDx=0;exitDy=0;entryX=0;entryY=0.5;entryDx=0;entryDy=0;" parent="1" source="hs3t5YbcjIkOprN6Pvll-25" target="L-5J91DhTl_yXd37FWec-5" edge="1">
                    <mxGeometry width="50" height="50" relative="1" as="geometry">
                        <mxPoint x="540" y="240" as="sourcePoint"/>
                        <mxPoint x="590" y="190" as="targetPoint"/>
                    </mxGeometry>
                </mxCell>
                <mxCell id="hs3t5YbcjIkOprN6Pvll-27" value="id_proyecto(PK)&lt;br&gt;Nombre&lt;br&gt;Descripción&lt;br&gt;id_rama(FK1)" style="ellipse;whiteSpace=wrap;html=1;" parent="1" vertex="1">
                    <mxGeometry x="540" y="-100" width="120" height="80" as="geometry"/>
                </mxCell>
                <mxCell id="hs3t5YbcjIkOprN6Pvll-28" value="" style="endArrow=none;html=1;rounded=0;entryX=0.5;entryY=1;entryDx=0;entryDy=0;exitX=0.5;exitY=0;exitDx=0;exitDy=0;" parent="1" source="L-5J91DhTl_yXd37FWec-4" target="hs3t5YbcjIkOprN6Pvll-27" edge="1">
                    <mxGeometry width="50" height="50" relative="1" as="geometry">
                        <mxPoint x="570" y="140" as="sourcePoint"/>
                        <mxPoint x="620" y="90" as="targetPoint"/>
                    </mxGeometry>
                </mxCell>
                <mxCell id="hs3t5YbcjIkOprN6Pvll-29" value="id_rama(PK)&lt;br&gt;Nombre" style="ellipse;whiteSpace=wrap;html=1;" parent="1" vertex="1">
                    <mxGeometry x="800" y="45" width="120" height="100" as="geometry"/>
                </mxCell>
                <mxCell id="hs3t5YbcjIkOprN6Pvll-30" value="" style="endArrow=none;html=1;rounded=0;entryX=0.5;entryY=1;entryDx=0;entryDy=0;exitX=0.75;exitY=0;exitDx=0;exitDy=0;" parent="1" source="L-5J91DhTl_yXd37FWec-3" target="hs3t5YbcjIkOprN6Pvll-29" edge="1">
                    <mxGeometry width="50" height="50" relative="1" as="geometry">
                        <mxPoint x="730" y="310" as="sourcePoint"/>
                        <mxPoint x="780" y="260" as="targetPoint"/>
                    </mxGeometry>
                </mxCell>
                <mxCell id="hs3t5YbcjIkOprN6Pvll-31" value="id_profesor(PK)&lt;br&gt;Nombre&lt;br&gt;Email&lt;br&gt;Fecha_inicio_trabajo&lt;br&gt;Fecha_fin&lt;br&gt;id_rol(FK1)" style="ellipse;whiteSpace=wrap;html=1;" parent="1" vertex="1">
                    <mxGeometry x="1180" y="190" width="120" height="130" as="geometry"/>
                </mxCell>
                <mxCell id="hs3t5YbcjIkOprN6Pvll-32" value="" style="endArrow=none;html=1;rounded=0;entryX=0;entryY=0.5;entryDx=0;entryDy=0;exitX=1;exitY=0.5;exitDx=0;exitDy=0;" parent="1" source="L-5J91DhTl_yXd37FWec-2" target="hs3t5YbcjIkOprN6Pvll-31" edge="1">
                    <mxGeometry width="50" height="50" relative="1" as="geometry">
                        <mxPoint x="810" y="280" as="sourcePoint"/>
                        <mxPoint x="860" y="230" as="targetPoint"/>
                    </mxGeometry>
                </mxCell>
                <mxCell id="hs3t5YbcjIkOprN6Pvll-33" value="Rol" style="rounded=1;whiteSpace=wrap;html=1;" parent="1" vertex="1">
                    <mxGeometry x="1140" y="500" width="120" height="60" as="geometry"/>
                </mxCell>
                <mxCell id="hs3t5YbcjIkOprN6Pvll-34" value="Es" style="rhombus;whiteSpace=wrap;html=1;" parent="1" vertex="1">
                    <mxGeometry x="1080" y="370" width="80" height="80" as="geometry"/>
                </mxCell>
                <mxCell id="hs3t5YbcjIkOprN6Pvll-35" value="" style="endArrow=none;html=1;rounded=0;entryX=0.5;entryY=0;entryDx=0;entryDy=0;exitX=0.5;exitY=1;exitDx=0;exitDy=0;" parent="1" source="L-5J91DhTl_yXd37FWec-2" target="hs3t5YbcjIkOprN6Pvll-34" edge="1">
                    <mxGeometry width="50" height="50" relative="1" as="geometry">
                        <mxPoint x="990" y="360" as="sourcePoint"/>
                        <mxPoint x="1040" y="310" as="targetPoint"/>
                    </mxGeometry>
                </mxCell>
                <mxCell id="hs3t5YbcjIkOprN6Pvll-36" value="" style="endArrow=none;html=1;rounded=0;exitX=0.5;exitY=0;exitDx=0;exitDy=0;entryX=0.5;entryY=1;entryDx=0;entryDy=0;" parent="1" source="hs3t5YbcjIkOprN6Pvll-33" target="hs3t5YbcjIkOprN6Pvll-34" edge="1">
                    <mxGeometry width="50" height="50" relative="1" as="geometry">
                        <mxPoint x="990" y="360" as="sourcePoint"/>
                        <mxPoint x="1040" y="310" as="targetPoint"/>
                    </mxGeometry>
                </mxCell>
                <mxCell id="hs3t5YbcjIkOprN6Pvll-37" value="N:1" style="text;html=1;strokeColor=none;fillColor=none;align=center;verticalAlign=middle;whiteSpace=wrap;rounded=0;" parent="1" vertex="1">
                    <mxGeometry x="1160" y="395" width="60" height="30" as="geometry"/>
                </mxCell>
                <mxCell id="hs3t5YbcjIkOprN6Pvll-38" value="N" style="text;html=1;strokeColor=none;fillColor=none;align=center;verticalAlign=middle;whiteSpace=wrap;rounded=0;" parent="1" vertex="1">
                    <mxGeometry x="1050" y="310" width="60" height="30" as="geometry"/>
                </mxCell>
                <mxCell id="hs3t5YbcjIkOprN6Pvll-39" value="1" style="text;html=1;strokeColor=none;fillColor=none;align=center;verticalAlign=middle;whiteSpace=wrap;rounded=0;" parent="1" vertex="1">
                    <mxGeometry x="1200" y="470" width="60" height="30" as="geometry"/>
                </mxCell>
                <mxCell id="hs3t5YbcjIkOprN6Pvll-40" value="id_rol(PK)&lt;br&gt;Nombre&lt;br&gt;Descripción&lt;br&gt;Hora_entrada&lt;br&gt;Hora_salida" style="ellipse;whiteSpace=wrap;html=1;" parent="1" vertex="1">
                    <mxGeometry x="1350" y="480" width="120" height="90" as="geometry"/>
                </mxCell>
                <mxCell id="hs3t5YbcjIkOprN6Pvll-41" value="" style="endArrow=none;html=1;rounded=0;entryX=0;entryY=0.5;entryDx=0;entryDy=0;exitX=1;exitY=0.5;exitDx=0;exitDy=0;" parent="1" source="hs3t5YbcjIkOprN6Pvll-33" target="hs3t5YbcjIkOprN6Pvll-40" edge="1">
                    <mxGeometry width="50" height="50" relative="1" as="geometry">
                        <mxPoint x="1100" y="470" as="sourcePoint"/>
                        <mxPoint x="1150" y="420" as="targetPoint"/>
                    </mxGeometry>
                </mxCell>
                <mxCell id="hs3t5YbcjIkOprN6Pvll-42" value="id_modalidad(PK)&lt;br&gt;Nombre&lt;br&gt;Hora_Entrada&lt;br&gt;Hora_salida&lt;br&gt;id_rama(FK1)" style="ellipse;whiteSpace=wrap;html=1;" parent="1" vertex="1">
                    <mxGeometry x="980" y="590" width="120" height="130" as="geometry"/>
                </mxCell>
                <mxCell id="hs3t5YbcjIkOprN6Pvll-43" value="" style="endArrow=none;html=1;rounded=0;exitX=0;exitY=0.5;exitDx=0;exitDy=0;entryX=0.5;entryY=1;entryDx=0;entryDy=0;" parent="1" source="hs3t5YbcjIkOprN6Pvll-42" target="hs3t5YbcjIkOprN6Pvll-15" edge="1">
                    <mxGeometry width="50" height="50" relative="1" as="geometry">
                        <mxPoint x="960" y="480" as="sourcePoint"/>
                        <mxPoint x="1010" y="430" as="targetPoint"/>
                    </mxGeometry>
                </mxCell>
                <mxCell id="hs3t5YbcjIkOprN6Pvll-44" value="id_tasistencia(PK)&lt;br&gt;Tipo&lt;br&gt;id_rama(FK1)" style="ellipse;whiteSpace=wrap;html=1;" parent="1" vertex="1">
                    <mxGeometry x="455" y="680" width="120" height="80" as="geometry"/>
                </mxCell>
                <mxCell id="hs3t5YbcjIkOprN6Pvll-45" value="" style="endArrow=none;html=1;rounded=0;entryX=0.5;entryY=0;entryDx=0;entryDy=0;exitX=0.5;exitY=1;exitDx=0;exitDy=0;" parent="1" source="hs3t5YbcjIkOprN6Pvll-13" target="hs3t5YbcjIkOprN6Pvll-44" edge="1">
                    <mxGeometry width="50" height="50" relative="1" as="geometry">
                        <mxPoint x="680" y="530" as="sourcePoint"/>
                        <mxPoint x="730" y="480" as="targetPoint"/>
                    </mxGeometry>
                </mxCell>
                <mxCell id="hs3t5YbcjIkOprN6Pvll-46" value="id_promoción(PK)&lt;br&gt;Fecha_inicio&lt;br&gt;Fecha_fin&lt;br&gt;Npromoción&lt;div&gt;id_rama(FK1)&lt;/div&gt;" style="ellipse;whiteSpace=wrap;html=1;" parent="1" vertex="1">
                    <mxGeometry x="410" y="580" width="130" height="90" as="geometry"/>
                </mxCell>
                <mxCell id="hs3t5YbcjIkOprN6Pvll-47" value="" style="endArrow=none;html=1;rounded=0;exitX=0.5;exitY=1;exitDx=0;exitDy=0;entryX=0.5;entryY=0;entryDx=0;entryDy=0;" parent="1" source="hs3t5YbcjIkOprN6Pvll-1" target="hs3t5YbcjIkOprN6Pvll-46" edge="1">
                    <mxGeometry width="50" height="50" relative="1" as="geometry">
                        <mxPoint x="400" y="340" as="sourcePoint"/>
                        <mxPoint x="430" y="410" as="targetPoint"/>
                    </mxGeometry>
                </mxCell>
                <mxCell id="hs3t5YbcjIkOprN6Pvll-49" value="id_alumno(PK)&lt;br&gt;Nombre&lt;br&gt;Email&lt;br&gt;id_promoción(FK1)" style="ellipse;whiteSpace=wrap;html=1;" parent="1" vertex="1">
                    <mxGeometry x="60" y="425" width="140" height="115" as="geometry"/>
                </mxCell>
                <mxCell id="hs3t5YbcjIkOprN6Pvll-53" value="" style="endArrow=none;html=1;rounded=0;exitX=0.5;exitY=0;exitDx=0;exitDy=0;entryX=0.5;entryY=1;entryDx=0;entryDy=0;" parent="1" source="hs3t5YbcjIkOprN6Pvll-49" target="L-5J91DhTl_yXd37FWec-1" edge="1">
                    <mxGeometry width="50" height="50" relative="1" as="geometry">
                        <mxPoint x="300" y="340" as="sourcePoint"/>
                        <mxPoint x="350" y="290" as="targetPoint"/>
                    </mxGeometry>
                </mxCell>
                <mxCell id="2" value="Campus" style="rounded=1;whiteSpace=wrap;html=1;" vertex="1" parent="1">
                    <mxGeometry x="230" y="500" width="120" height="60" as="geometry"/>
                </mxCell>
                <mxCell id="3" value="Tiene" style="rhombus;whiteSpace=wrap;html=1;" vertex="1" parent="1">
                    <mxGeometry x="315" y="360" width="80" height="80" as="geometry"/>
                </mxCell>
                <mxCell id="4" value="" style="endArrow=none;html=1;rounded=0;exitX=0;exitY=1;exitDx=0;exitDy=0;entryX=0.5;entryY=0;entryDx=0;entryDy=0;" edge="1" parent="1" source="hs3t5YbcjIkOprN6Pvll-1" target="3">
                    <mxGeometry width="50" height="50" relative="1" as="geometry">
                        <mxPoint x="440" y="320" as="sourcePoint"/>
                        <mxPoint x="485" y="590" as="targetPoint"/>
                    </mxGeometry>
                </mxCell>
                <mxCell id="5" value="" style="endArrow=none;html=1;rounded=0;exitX=0.5;exitY=1;exitDx=0;exitDy=0;entryX=0.5;entryY=0;entryDx=0;entryDy=0;" edge="1" parent="1" source="3" target="2">
                    <mxGeometry width="50" height="50" relative="1" as="geometry">
                        <mxPoint x="380" y="320" as="sourcePoint"/>
                        <mxPoint x="365" y="370" as="targetPoint"/>
                    </mxGeometry>
                </mxCell>
                <mxCell id="6" value="N:M" style="text;html=1;strokeColor=none;fillColor=none;align=center;verticalAlign=middle;whiteSpace=wrap;rounded=0;" vertex="1" parent="1">
                    <mxGeometry x="265" y="385" width="60" height="30" as="geometry"/>
                </mxCell>
                <mxCell id="7" value="N" style="text;html=1;strokeColor=none;fillColor=none;align=center;verticalAlign=middle;whiteSpace=wrap;rounded=0;" vertex="1" parent="1">
                    <mxGeometry x="350" y="310" width="60" height="30" as="geometry"/>
                </mxCell>
                <mxCell id="8" value="N" style="text;html=1;strokeColor=none;fillColor=none;align=center;verticalAlign=middle;whiteSpace=wrap;rounded=0;" vertex="1" parent="1">
                    <mxGeometry x="230" y="470" width="60" height="30" as="geometry"/>
                </mxCell>
                <mxCell id="9" value="id_campus(PK)&lt;br&gt;Nombre&lt;br&gt;Npromoción&lt;br&gt;id_rama(FK1)" style="ellipse;whiteSpace=wrap;html=1;" vertex="1" parent="1">
                    <mxGeometry x="180" y="620" width="140" height="115" as="geometry"/>
                </mxCell>
                <mxCell id="11" value="" style="endArrow=none;html=1;rounded=0;exitX=0.5;exitY=1;exitDx=0;exitDy=0;entryX=0.5;entryY=0;entryDx=0;entryDy=0;" edge="1" parent="1" source="2" target="9">
                    <mxGeometry width="50" height="50" relative="1" as="geometry">
                        <mxPoint x="365" y="450" as="sourcePoint"/>
                        <mxPoint x="300" y="510" as="targetPoint"/>
                    </mxGeometry>
                </mxCell>
            </root>
        </mxGraphModel>
    </diagram>
</mxfile>